# Blender 5.1.1
# www.blender.org
o Cylinder
v -0.004166 0.000000 0.006281 0.4118 0.7686 0.5098
v -0.004166 0.188918 0.006281 0.2549 1.0000 0.5608
v -0.011070 -0.002181 -0.089515 0.3843 0.8941 1.0000
v -0.003764 0.189578 -0.089920 1.0000 1.0000 0.9960
v 0.076128 0.001677 -0.039398 1.0000 0.0000 0.9725
v 0.074184 0.186597 -0.038986 0.2667 0.9411 0.1490
v 0.076828 -0.000780 0.054678 0.2667 0.3568 0.0549
v 0.076747 0.189695 0.050785 0.2863 0.9843 0.5804
v -0.003700 -0.001525 0.100888 0.1333 0.4745 0.0745
v -0.005495 0.190711 0.102253 0.9921 0.9960 1.0000
v -0.086574 0.001824 0.056103 1.0000 0.9647 0.0000
v -0.086723 0.189816 0.049886 0.0157 0.7764 0.8745
v -0.084749 0.002199 -0.040202 1.0000 0.2314 0.9725
v -0.085497 0.188624 -0.041174 0.4471 0.5333 0.3019
v 0.036736 -0.000000 -0.017334 0.1961 0.5216 0.2000
v -0.004166 -0.000000 -0.040949 0.5843 1.0000 0.7412
v 0.038206 0.002018 -0.065782 0.8588 0.6236 0.9843
v -0.004166 0.188918 -0.040949 0.9411 0.3216 0.0000
v 0.036736 0.188918 -0.017334 0.9960 0.9686 0.9647
v 0.038870 0.187391 -0.065460 0.2667 0.9411 0.1490
v -0.004726 0.095446 -0.088735 0.7686 1.0000 0.4432
v 0.076344 0.092001 -0.041529 0.0510 1.0000 1.0000
v 0.036736 0.000000 0.029896 0.1333 0.4745 0.0745
v 0.081702 0.003366 0.005093 0.2667 0.9411 0.1490
v 0.036736 0.188918 0.029896 0.2549 1.0000 0.5608
v 0.082674 0.186432 0.008966 0.1804 0.2823 0.1725
v 0.077037 0.093330 0.054899 1.0000 0.0353 0.6980
v -0.004166 0.000000 0.053511 0.1333 0.4745 0.0745
v 0.029802 0.006136 0.078822 0.1333 0.4745 0.0745
v -0.004166 0.188918 0.053510 0.1608 0.2667 0.1725
v 0.038015 0.189615 0.078785 0.7568 0.2941 1.0000
v -0.004339 0.095234 0.100045 1.0000 0.5137 0.9294
v -0.045068 0.000000 0.029896 1.0000 0.9647 0.0000
v -0.046090 -0.001248 0.073608 0.6432 0.2706 0.2235
v -0.045068 0.188918 0.029896 0.1922 0.7843 0.8784
v -0.041903 0.188881 0.075733 0.0157 0.7764 0.8745
v -0.083227 0.095973 0.056278 0.5333 0.1882 0.1804
v -0.045068 -0.000000 -0.017334 0.9804 1.0000 0.9843
v -0.087356 0.000593 0.011090 0.9411 0.3216 0.0000
v -0.045068 0.188918 -0.017334 0.9411 0.3216 0.0000
v -0.087481 0.190916 0.007589 1.0000 0.9647 0.0000
v -0.085955 0.096986 -0.042080 0.5764 0.4471 1.0000
v -0.045617 -0.000635 -0.062650 1.0000 0.3098 0.9764
v -0.046494 0.186836 -0.065351 0.9411 0.3216 0.0000
v -0.044786 0.091928 -0.068909 1.0000 0.1137 0.1255
v -0.088917 0.088129 0.005426 0.5530 0.1843 0.2392
v -0.041876 0.093564 0.079983 0.2823 0.1490 0.5333
v 0.033588 0.093872 0.081757 0.4745 0.0314 0.4628
v 0.073755 0.093230 0.011187 0.3686 0.9294 0.9647
v 0.035350 0.097865 -0.064243 0.7568 0.8745 0.1216
v 0.047819 0.000730 -0.056673 1.0000 0.0000 0.9725
v 0.056409 0.002042 -0.055782 1.0000 0.0000 0.9725
v 0.067663 -0.001642 -0.048135 1.0000 0.0000 0.9725
v 0.028170 0.191280 -0.070894 0.2667 0.9411 0.1490
v 0.015760 0.193347 -0.079387 0.9411 0.3216 0.0000
v 0.008603 0.192402 -0.082739 0.9411 0.3216 0.0000
v -0.004831 0.117263 -0.092218 0.7686 1.0000 0.4432
v -0.005151 0.141368 -0.092916 0.4157 1.0000 0.1255
v -0.007762 0.166548 -0.093297 0.6471 0.8470 0.1647
v 0.082955 0.072424 -0.047011 1.0000 0.0353 0.6980
v 0.087179 0.047738 -0.047840 1.0000 0.1725 0.7059
v 0.083804 0.023075 -0.046200 1.0000 0.0000 0.9725
v 0.078954 -0.000375 0.020577 0.2667 0.9411 0.1490
v 0.080347 0.000901 0.030251 0.2667 0.9411 0.1490
v 0.080302 -0.003264 0.041149 0.2667 0.9411 0.1490
v 0.078148 0.190704 -0.007550 0.2667 0.9411 0.1490
v 0.080082 0.189154 -0.017804 0.2667 0.9411 0.1490
v 0.080248 0.192704 -0.030039 0.2667 0.9411 0.1490
v 0.079100 0.067679 0.052022 1.0000 0.0000 0.9725
v 0.083686 0.047147 0.052290 1.0000 0.4628 0.7020
v 0.082368 0.021575 0.057967 0.2667 0.9411 0.1490
v 0.029138 -0.001786 0.081537 0.1333 0.4745 0.0745
v 0.018164 -0.002909 0.092598 0.1333 0.4745 0.0745
v 0.008066 -0.000226 0.098463 0.4550 0.4745 0.3098
v 0.048747 0.191181 0.072114 0.7568 0.2941 1.0000
v 0.058563 0.190814 0.066557 0.7568 0.2941 1.0000
v 0.071060 0.188523 0.060344 0.7568 0.2941 1.0000
v 0.000071 0.073989 0.104446 0.4745 0.0314 0.4628
v -0.001729 0.041600 0.111216 1.0000 0.4235 0.7490
v -0.003385 0.023792 0.108584 1.0000 0.4667 0.6941
v -0.057687 0.000198 0.069310 0.9411 0.3216 0.0000
v -0.066176 -0.000958 0.065227 0.9411 0.3216 0.0000
v -0.075743 -0.001911 0.058729 1.0000 0.9647 0.0000
v -0.032885 0.186824 0.081667 0.0157 0.7764 0.8745
v -0.024957 0.191099 0.091781 0.0157 0.7764 0.8745
v -0.015573 0.189664 0.098829 0.0157 0.7764 0.8745
v -0.090527 0.064946 0.052005 0.6863 0.5137 0.1530
v -0.089970 0.049093 0.057805 1.0000 0.9647 0.0000
v -0.089711 0.023926 0.054644 1.0000 0.9647 0.0000
v -0.085427 -0.000963 -0.004734 1.0000 1.0000 1.0000
v -0.086760 -0.001093 -0.016798 1.0000 1.0000 1.0000
v -0.089767 0.000475 -0.032210 1.0000 1.0000 1.0000
v -0.086189 0.189350 0.018959 1.0000 0.9647 0.0000
v -0.087733 0.187834 0.028370 0.0157 0.7764 0.8745
v -0.087308 0.190516 0.043704 0.0157 0.7764 0.8745
v -0.085407 0.076442 -0.047476 0.5764 0.4471 1.0000
v -0.094265 0.048227 -0.046264 1.0000 0.1137 0.1255
v -0.092156 0.021331 -0.041038 1.0000 0.1137 0.1255
v -0.036417 -0.002301 -0.068846 1.0000 1.0000 1.0000
v -0.025135 -0.002361 -0.079113 0.6315 0.5294 1.0000
v -0.014744 0.000019 -0.084104 0.5451 0.5569 1.0000
v -0.054546 0.188376 -0.056974 0.9411 0.3216 0.0000
v -0.067349 0.189854 -0.055421 0.9411 0.3216 0.0000
v -0.075426 0.191580 -0.046815 0.9411 0.3333 0.0863
v 0.007194 -0.002078 -0.086564 0.2275 0.0000 0.3608
v 0.016197 -0.003344 -0.079370 0.2275 0.0000 0.3608
v 0.027097 -0.000033 -0.069140 0.4902 0.5882 1.0000
v 0.068893 0.190139 -0.047993 0.2980 0.9529 0.1451
v 0.057873 0.191933 -0.056454 0.2667 0.9411 0.1490
v 0.048346 0.188244 -0.057242 0.2667 0.9411 0.1490
v -0.009198 0.020590 -0.098595 0.3176 0.9764 1.0000
v -0.004066 0.050567 -0.098264 0.2275 0.0000 0.3608
v -0.006234 0.075292 -0.086510 0.7451 0.9372 0.6354
v 0.082934 0.160128 -0.046919 0.7568 0.8745 0.1216
v 0.086447 0.144059 -0.043761 0.4000 1.0000 1.0000
v 0.077861 0.119997 -0.039969 0.7568 0.2941 1.0000
v 0.080477 0.001136 -0.030223 0.2667 0.9411 0.1490
v 0.078367 -0.001244 -0.014418 0.2667 0.9411 0.1490
v 0.077851 0.002426 -0.006705 0.2667 0.9411 0.1490
v 0.079484 0.190645 0.041909 0.2549 1.0000 0.5608
v 0.081706 0.190373 0.029219 0.1608 0.2667 0.1725
v 0.078463 0.191290 0.018754 0.1608 0.2667 0.1725
v 0.090337 0.170156 0.056031 0.2549 1.0000 0.5608
v 0.081720 0.146082 0.062598 0.2549 1.0000 0.5608
v 0.082018 0.116684 0.054060 1.0000 0.0353 0.6980
v 0.066621 -0.006532 0.060830 0.2667 0.0902 0.0000
v 0.058159 0.002526 0.066826 0.2667 0.0902 0.0000
v 0.049337 -0.001278 0.073413 0.2510 0.1882 0.0275
v 0.007092 0.192489 0.098449 0.3019 0.8000 0.8862
v 0.017493 0.190242 0.090385 0.1608 0.2667 0.1725
v 0.026073 0.190387 0.080726 0.1608 0.2667 0.1725
v -0.001157 0.164590 0.105350 0.7568 0.2941 1.0000
v -0.004316 0.136915 0.108866 1.0000 0.0353 0.6980
v -0.000568 0.116821 0.104822 0.3921 0.9568 0.9960
v -0.012413 -0.002298 0.095045 0.1333 0.4745 0.0745
v -0.023966 -0.005138 0.092208 0.5294 0.1922 0.1804
v -0.035340 -0.004437 0.084452 0.5333 0.1882 0.1804
v -0.075951 0.190910 0.058195 0.0157 0.7764 0.8745
v -0.065391 0.191150 0.065305 0.0157 0.7764 0.8745
v -0.054452 0.187992 0.071295 0.0157 0.7764 0.8745
v -0.095698 0.166941 0.062493 0.3176 0.9764 1.0000
v -0.095178 0.144542 0.055086 0.4471 0.5333 0.3019
v -0.088731 0.120657 0.054834 0.4589 0.5019 0.2902
v -0.088685 -0.003012 0.042067 0.9411 0.3216 0.0000
v -0.089971 -0.003162 0.027669 0.9411 0.3216 0.0000
v -0.086531 -0.001418 0.019872 0.9411 0.3216 0.0000
v -0.086927 0.190797 -0.029203 0.3176 0.9764 1.0000
v -0.088408 0.193480 -0.017326 0.3176 0.9764 1.0000
v -0.086237 0.186116 -0.003479 0.4432 0.9764 0.9451
v -0.094242 0.163632 -0.042539 0.4471 0.5333 0.3019
v -0.087253 0.143069 -0.044967 0.5764 0.4471 1.0000
v -0.087793 0.120212 -0.041006 0.5764 0.4471 1.0000
v -0.077173 -0.003565 -0.051598 1.0000 0.0000 0.9725
v -0.066293 0.000008 -0.053544 1.0000 0.0000 0.9725
v -0.054884 0.000885 -0.059062 1.0000 0.0000 0.9725
v -0.016284 0.190565 -0.082114 0.0157 0.7764 0.8745
v -0.022563 0.190451 -0.077931 0.0157 0.7764 0.8745
v -0.034178 0.189094 -0.071411 0.0157 0.7764 0.8745
v -0.034229 0.095865 -0.071882 0.7686 1.0000 0.4432
v -0.026269 0.093415 -0.080360 0.7686 1.0000 0.4432
v -0.016971 0.093614 -0.086046 0.7686 1.0000 0.4432
v -0.078714 0.094339 -0.048653 0.5764 0.4471 1.0000
v -0.068330 0.095367 -0.053514 0.5764 0.4471 1.0000
v -0.056830 0.094596 -0.058218 0.9804 0.1569 0.2784
v -0.047667 0.071728 -0.072396 1.0000 0.1137 0.1255
v -0.048555 0.046902 -0.073187 1.0000 0.5412 0.5412
v -0.050991 0.020688 -0.074603 1.0000 0.0000 0.9725
v -0.052152 0.165645 -0.079316 0.3176 0.9764 1.0000
v -0.047609 0.145879 -0.073272 0.9647 0.2941 0.3059
v -0.045586 0.119133 -0.069391 1.0000 0.1137 0.1255
v -0.085495 0.092639 -0.004468 0.9843 0.0392 0.9490
v -0.087864 0.091416 -0.015860 1.0000 0.0000 0.9725
v -0.089561 0.095244 -0.028239 1.0000 0.0000 0.9725
v -0.089823 0.094524 0.040358 0.5333 0.1882 0.1804
v -0.088445 0.093873 0.028310 0.9843 0.9451 0.0353
v -0.085541 0.095570 0.020621 0.5333 0.1882 0.1804
v -0.091959 0.075855 0.007928 0.4823 0.5059 0.3765
v -0.097636 0.048571 0.006931 0.2823 0.1490 0.5333
v -0.092501 0.022336 0.007901 0.9411 0.3216 0.0000
v -0.092460 0.166930 0.005635 1.0000 0.9647 0.0000
v -0.100044 0.141666 0.006756 1.0000 0.9686 0.2667
v -0.088678 0.118769 0.006674 0.5333 0.1882 0.1804
v -0.057322 0.098478 0.075573 0.2823 0.1490 0.5333
v -0.066805 0.094769 0.068549 0.5294 0.1882 0.1922
v -0.076131 0.092810 0.061469 0.5333 0.1882 0.1804
v -0.016785 0.095766 0.097577 0.7608 0.3686 0.7412
v -0.027644 0.094477 0.091754 0.2823 0.1490 0.5333
v -0.036234 0.095589 0.083060 0.2823 0.1490 0.5333
v -0.050060 0.072250 0.082374 0.2823 0.1490 0.5333
v -0.048559 0.046328 0.087228 0.5333 0.1882 0.1804
v -0.049958 0.020508 0.084700 0.9411 0.3216 0.0000
v -0.052667 0.168348 0.086526 1.0000 0.0353 0.6980
v -0.051354 0.140022 0.081967 0.3176 0.9764 1.0000
v -0.050642 0.115803 0.079291 0.2823 0.1490 0.5333
v 0.029090 0.095384 0.083807 0.4745 0.0314 0.4628
v 0.016094 0.093308 0.093823 0.4745 0.0314 0.4628
v 0.006851 0.092283 0.098082 1.0000 0.5137 0.9294
v 0.066877 0.094461 0.062447 1.0000 0.0353 0.6980
v 0.060373 0.094161 0.070286 0.6157 0.0314 0.5176
v 0.047453 0.093368 0.073236 0.4745 0.0314 0.4628
v 0.038762 0.070576 0.079308 0.4745 0.0314 0.4628
v 0.038385 0.045212 0.088927 0.4745 0.0314 0.4628
v 0.042577 0.023052 0.086058 0.3176 0.0824 0.2039
v 0.033873 0.164545 0.086671 0.5843 1.0000 0.7412
v 0.041403 0.144237 0.083799 0.2627 0.2667 0.1569
v 0.040299 0.118386 0.086378 1.0000 0.0353 0.6980
v 0.077207 0.095080 0.018444 1.0000 0.0353 0.6980
v 0.079723 0.094926 0.029085 1.0000 0.0353 0.6980
v 0.079801 0.094219 0.040600 1.0000 0.0353 0.6980
v 0.082726 0.091566 -0.029265 0.0510 1.0000 1.0000
v 0.077991 0.095949 -0.016752 0.0627 1.0000 1.0000
v 0.077499 0.094522 -0.008461 0.1765 0.9764 1.0000
v 0.084088 0.068026 0.007181 1.0000 0.0353 0.6980
v 0.084850 0.044175 0.002196 1.0000 0.0000 0.9725
v 0.087813 0.023377 0.006290 0.2667 0.9411 0.1490
v 0.082696 0.167191 0.008373 0.7568 0.2941 1.0000
v 0.083590 0.140322 0.003368 0.7568 0.2941 1.0000
v 0.079399 0.121021 0.007262 0.7568 0.2941 1.0000
v 0.048162 0.095097 -0.058195 0.7568 0.8745 0.1216
v 0.056919 0.094085 -0.053479 0.7568 0.8745 0.1216
v 0.070830 0.095128 -0.050845 0.0510 1.0000 1.0000
v 0.006052 0.094513 -0.086593 0.6354 0.8470 0.6863
v 0.020335 0.092744 -0.077567 0.7568 0.8745 0.1216
v 0.029051 0.094336 -0.072573 0.7451 0.8784 0.2314
v 0.036153 0.068403 -0.063622 0.3176 0.9764 1.0000
v 0.043079 0.041558 -0.072783 0.3176 0.9764 1.0000
v 0.041967 0.022945 -0.078733 0.3176 0.9764 1.0000
v 0.043864 0.163486 -0.067027 0.3137 0.9490 0.1451
v 0.041847 0.138641 -0.073010 0.7568 0.8745 0.1216
v 0.036418 0.118730 -0.068568 0.7568 0.8745 0.1216
v 0.008335 0.117523 -0.087896 0.4314 0.5647 0.9804
v 0.018470 0.117332 -0.083174 0.7568 0.8745 0.1216
v 0.028088 0.116324 -0.074016 0.7568 0.8745 0.1216
v 0.006425 0.142519 -0.092780 0.4157 1.0000 0.1255
v 0.021273 0.139757 -0.085081 0.7568 0.8745 0.1490
v 0.030160 0.140097 -0.079931 0.7568 0.8745 0.1216
v 0.009188 0.166139 -0.089166 0.4157 1.0000 0.1255
v 0.016746 0.165997 -0.083939 0.4157 1.0000 0.1255
v 0.028915 0.164663 -0.075580 0.4157 1.0000 0.1255
v 0.002353 0.019944 -0.096099 0.3176 0.9764 1.0000
v 0.017802 0.017423 -0.090167 0.2196 0.4392 1.0000
v 0.028583 0.023733 -0.086325 0.2196 0.4235 1.0000
v 0.011767 0.046563 -0.095173 0.2196 0.4235 1.0000
v 0.022522 0.043034 -0.089386 0.2196 0.4275 1.0000
v 0.031234 0.045470 -0.080149 0.3176 0.9764 1.0000
v 0.005156 0.069167 -0.083073 0.2196 0.4235 1.0000
v 0.015752 0.073147 -0.076830 0.3176 0.9764 1.0000
v 0.025342 0.067767 -0.070479 0.3176 0.9764 1.0000
v 0.053061 0.018800 -0.076514 0.3176 0.9764 1.0000
v 0.065431 0.021464 -0.064412 0.3176 0.9764 1.0000
v 0.075749 0.020095 -0.054424 1.0000 0.0000 0.9725
v 0.055011 0.041275 -0.068471 0.3176 0.9764 1.0000
v 0.064330 0.044377 -0.061952 1.0000 0.0353 0.6980
v 0.076280 0.045577 -0.057087 1.0000 0.0353 0.6980
v 0.047636 0.069446 -0.062505 0.3176 0.9764 1.0000
v 0.059390 0.071869 -0.060849 1.0000 0.0353 0.6980
v 0.071753 0.073289 -0.053512 1.0000 0.0353 0.6980
v 0.082627 0.121117 -0.028256 0.7568 0.2941 1.0000
v 0.082278 0.123468 -0.021354 0.7568 0.2941 1.0000
v 0.081254 0.119658 -0.001614 0.7568 0.2941 1.0000
v 0.088046 0.143593 -0.032283 0.0510 1.0000 1.0000
v 0.086838 0.143158 -0.020607 0.0510 1.0000 1.0000
v 0.085785 0.143449 -0.009487 0.0510 1.0000 1.0000
v 0.085797 0.166405 -0.032471 0.3176 0.9372 0.1490
v 0.087352 0.164473 -0.018511 0.4432 0.9255 0.1412
v 0.085439 0.167355 -0.008476 0.5647 0.9098 0.1373
v 0.089456 0.023347 -0.034793 1.0000 0.0000 0.9725
v 0.088004 0.022421 -0.020352 0.2667 0.9411 0.1490
v 0.085481 0.022670 -0.005859 0.2667 0.9411 0.1490
v 0.088000 0.048258 -0.036427 1.0000 0.4863 0.7804
v 0.087524 0.044221 -0.021281 1.0000 0.0000 0.9725
v 0.087022 0.045442 -0.008615 1.0000 0.0000 0.9725
v 0.086604 0.070661 -0.031743 1.0000 0.0353 0.6980
v 0.084917 0.071542 -0.019432 1.0000 0.0353 0.6980
v 0.084479 0.066005 -0.007499 1.0000 0.0000 0.9725
v 0.086827 0.021798 0.022120 0.2667 0.9411 0.1490
v 0.088271 0.019479 0.032288 0.2667 0.9411 0.1490
v 0.085426 0.022436 0.041747 0.2667 0.9411 0.1490
v 0.085410 0.046406 0.015167 0.6315 0.7647 0.5882
v 0.087268 0.045052 0.027762 0.2667 0.9411 0.1490
v 0.087258 0.045658 0.039275 1.0000 0.0000 0.9725
v 0.085056 0.069105 0.017275 1.0000 0.0353 0.6980
v 0.084650 0.066922 0.029694 1.0000 0.0353 0.6980
v 0.084462 0.068051 0.040328 1.0000 0.9058 0.9764
v 0.072825 0.117425 0.062934 1.0000 0.0353 0.6980
v 0.062870 0.117460 0.071421 1.0000 0.0353 0.6980
v 0.052363 0.118221 0.080383 1.0000 0.0353 0.6980
v 0.072805 0.145665 0.069515 0.2549 1.0000 0.5608
v 0.064454 0.146043 0.076257 0.2549 1.0000 0.5608
v 0.052124 0.143207 0.080637 0.2627 0.2667 0.1569
v 0.079129 0.169663 0.071164 0.6315 0.6315 0.8745
v 0.064104 0.172450 0.076873 0.7568 0.2941 1.0000
v 0.052240 0.167803 0.080479 0.5921 0.9804 0.7529
v 0.073696 0.023742 0.065669 0.4353 0.3725 0.3568
v 0.061388 0.019614 0.074233 0.2667 0.0902 0.0000
v 0.056922 0.023370 0.080945 0.3725 0.0706 0.3059
v 0.076217 0.046225 0.065806 1.0000 0.4667 0.6941
v 0.059628 0.043585 0.072433 1.0000 0.4667 0.6941
v 0.051357 0.046659 0.083283 0.4745 0.0314 0.4628
v 0.071014 0.070719 0.062385 0.4941 0.1530 0.4823
v 0.060206 0.071398 0.067562 0.4745 0.0314 0.4628
v 0.050066 0.070827 0.073190 0.4745 0.0314 0.4628
v 0.033231 0.023343 0.091494 0.2000 0.3686 0.0588
v 0.024026 0.022028 0.096918 1.0000 0.4667 0.6941
v 0.007931 0.022672 0.108205 1.0000 0.4667 0.6941
v 0.028840 0.045458 0.093563 0.4745 0.0314 0.4628
v 0.017825 0.043311 0.103158 1.0000 0.3921 0.7882
v 0.010568 0.042107 0.107599 1.0000 0.4667 0.6941
v 0.028484 0.071061 0.085243 0.4745 0.0314 0.4628
v 0.020833 0.072334 0.092379 0.4745 0.0314 0.4628
v 0.013173 0.072788 0.100241 0.4745 0.0314 0.4628
v -0.013399 0.118332 0.101109 0.9804 0.5019 0.9176
v -0.027444 0.112437 0.093901 0.2823 0.1490 0.5333
v -0.039493 0.114013 0.090362 0.2823 0.1490 0.5333
v -0.018068 0.140173 0.103291 1.0000 0.0353 0.6980
v -0.028237 0.141064 0.097628 1.0000 0.0353 0.6980
v -0.037864 0.140729 0.088920 0.9960 0.1098 0.7020
v -0.012943 0.165449 0.101036 0.7568 0.2941 1.0000
v -0.027349 0.169515 0.096851 1.0000 0.0353 0.6980
v -0.042425 0.169208 0.095575 1.0000 0.0353 0.6980
v -0.017653 0.022982 0.105100 0.2823 0.1490 0.5333
v -0.026499 0.022264 0.100309 0.5294 0.1882 0.1961
v -0.041308 0.021644 0.089615 0.5333 0.1882 0.1804
v -0.016093 0.041918 0.106971 0.2823 0.1490 0.5333
v -0.028428 0.043607 0.101723 0.2823 0.1490 0.5333
v -0.035223 0.045824 0.091298 0.2823 0.1490 0.5333
v -0.015617 0.076350 0.100029 0.4745 0.0314 0.4628
v -0.027753 0.073476 0.096329 0.2823 0.1490 0.5333
v -0.038799 0.071262 0.088284 0.2823 0.1490 0.5333
v -0.059361 0.019445 0.075528 0.9411 0.3216 0.0000
v -0.071570 0.021652 0.072103 0.9411 0.3216 0.0000
v -0.080264 0.023109 0.062693 0.9411 0.3216 0.0000
v -0.060475 0.046365 0.082550 0.9215 0.3176 0.0471
v -0.069488 0.048267 0.075618 0.9411 0.3216 0.0000
v -0.081400 0.048838 0.066592 0.9411 0.3216 0.0000
v -0.058935 0.069730 0.074666 0.5333 0.1882 0.1804
v -0.073351 0.069843 0.070968 0.5333 0.1882 0.1804
v -0.081741 0.066382 0.063973 0.5333 0.1882 0.1804
v -0.092622 0.117798 0.044111 0.4589 0.5412 0.2980
v -0.093633 0.121158 0.027542 1.0000 0.9647 0.0000
v -0.091619 0.118895 0.019064 0.7372 0.6000 0.1451
v -0.098939 0.142141 0.044538 0.4471 0.5333 0.3019
v -0.103159 0.145229 0.031990 1.0000 0.9647 0.0000
v -0.100429 0.144230 0.020027 1.0000 0.9647 0.0000
v -0.100765 0.170154 0.049414 0.3176 0.9764 1.0000
v -0.098230 0.169733 0.033539 0.5333 0.1882 0.1804
v -0.091396 0.167901 0.016403 1.0000 0.9647 0.0000
v -0.092180 0.021723 0.042915 0.9411 0.3255 0.0000
v -0.092383 0.020799 0.032784 0.9411 0.3216 0.0000
v -0.095127 0.022167 0.020425 0.9411 0.3216 0.0000
v -0.095777 0.047374 0.043284 1.0000 0.9647 0.0000
v -0.097896 0.044031 0.035551 1.0000 0.9647 0.0000
v -0.098989 0.046803 0.019867 0.2863 0.1490 0.5333
v -0.094013 0.065118 0.044544 1.0000 0.9647 0.0000
v -0.094230 0.070386 0.028597 0.2823 0.1490 0.5333
v -0.093454 0.072627 0.016561 0.2823 0.1490 0.5333
v -0.092097 0.023412 -0.003981 1.0000 0.1137 0.1255
v -0.094874 0.019811 -0.014218 1.0000 0.1137 0.1255
v -0.096454 0.019308 -0.031388 1.0000 0.1137 0.1255
v -0.098772 0.046247 -0.021668 1.0000 0.1137 0.1255
v -0.098401 0.047292 -0.032615 1.0000 0.1255 0.1373
v -0.094542 0.080460 -0.005409 1.0000 0.0000 0.9725
v -0.091511 0.073057 -0.021728 1.0000 0.0000 0.9725
v -0.091170 0.075004 -0.035207 1.0000 0.0000 0.9725
v -0.080801 0.120700 -0.052108 0.5764 0.4471 1.0000
v -0.068021 0.121429 -0.058257 0.5764 0.4471 1.0000
v -0.056030 0.117736 -0.065269 1.0000 0.1255 0.1373
v -0.078168 0.143555 -0.053453 0.5764 0.4471 1.0000
v -0.067817 0.146384 -0.062374 0.5764 0.4471 1.0000
v -0.059206 0.144922 -0.065649 0.5764 0.4471 1.0000
v -0.088593 0.164291 -0.053076 0.5764 0.4471 1.0000
v -0.076579 0.164678 -0.067361 0.5764 0.4471 1.0000
v -0.064280 0.164418 -0.072629 0.3294 0.9647 1.0000
v -0.083253 0.019191 -0.050558 1.0000 0.0588 0.8392
v -0.072450 0.018982 -0.060677 1.0000 0.0000 0.9725
v -0.063450 0.022541 -0.062648 1.0000 0.0000 0.9725
v -0.084918 0.044817 -0.051716 1.0000 0.1137 0.1255
v -0.071879 0.048266 -0.064018 1.0000 0.1137 0.1255
v -0.060320 0.047303 -0.065302 1.0000 0.1137 0.1255
v -0.078650 0.076244 -0.055844 0.5764 0.4471 1.0000
v -0.067167 0.074436 -0.059860 0.5764 0.4471 1.0000
v -0.057988 0.073569 -0.066118 0.9607 0.1882 0.3608
v -0.040484 0.020643 -0.079489 0.5764 0.4471 1.0000
v -0.029357 0.020227 -0.088130 0.5764 0.4471 1.0000
v -0.020262 0.018504 -0.093892 0.3176 0.9764 1.0000
v -0.037766 0.045979 -0.079269 0.5764 0.4471 1.0000
v -0.030672 0.049052 -0.086951 0.5764 0.4471 1.0000
v -0.016523 0.048268 -0.095422 0.9294 0.9137 1.0000
v -0.036760 0.073849 -0.078586 0.7686 1.0000 0.4432
v -0.030354 0.075083 -0.083112 0.7686 1.0000 0.4432
v -0.017058 0.073417 -0.084119 0.7686 1.0000 0.4432
v -0.034856 0.119238 -0.077619 1.0000 0.1137 0.1255
v -0.024472 0.119763 -0.082356 0.9058 0.6667 0.3059
v -0.016965 0.116470 -0.088466 0.7686 1.0000 0.4432
v -0.038491 0.146426 -0.080579 1.0000 0.1137 0.1255
v -0.027535 0.145945 -0.086354 1.0000 0.1137 0.1255
v -0.018857 0.144278 -0.090661 1.0000 0.1137 0.1255
v -0.042082 0.167278 -0.085162 0.3176 0.9764 1.0000
v -0.029172 0.167744 -0.087270 1.0000 0.1137 0.1255
v -0.019374 0.169196 -0.093097 1.0000 0.1137 0.1255
v -0.089637 0.121013 -0.004103 0.5333 0.1882 0.1804
v -0.089242 0.122876 -0.016305 0.4471 0.5333 0.3019
v -0.095337 0.122146 -0.029446 0.4471 0.5333 0.3019
v -0.094687 0.142278 -0.006705 0.4471 0.5333 0.3019
v -0.097969 0.143063 -0.020421 0.4471 0.5333 0.3019
v -0.094071 0.142012 -0.030922 0.4471 0.5333 0.3019
v -0.092874 0.165287 -0.005113 1.0000 0.9725 0.3961
v -0.093600 0.163866 -0.021372 0.4471 0.5333 0.3019
v -0.098099 0.166834 -0.029708 0.4471 0.5333 0.3019
v -0.059940 0.116079 0.073867 0.2823 0.1490 0.5333
v -0.071114 0.118262 0.069706 0.4471 0.5333 0.3019
v -0.080791 0.120922 0.066964 0.4471 0.5333 0.3019
v -0.064769 0.141020 0.075835 0.3176 0.9764 1.0000
v -0.074642 0.142471 0.069648 0.2823 0.1490 0.5333
v -0.086342 0.146433 0.066305 0.4471 0.5333 0.3019
v -0.063287 0.166807 0.080575 1.0000 0.0353 0.6980
v -0.076868 0.171328 0.076762 0.9215 0.0902 0.6276
v -0.086450 0.169061 0.071126 0.3176 0.9764 1.0000
v 0.031334 0.119403 0.093718 0.9686 0.0353 0.6863
v 0.021270 0.120173 0.098898 0.9686 0.0353 0.6824
v 0.011461 0.116707 0.102295 1.0000 0.5137 0.9294
v 0.030866 0.144775 0.092294 0.7137 0.2902 0.9333
v 0.020489 0.143954 0.099311 0.8784 0.2157 0.8706
v 0.004282 0.140663 0.103144 1.0000 0.0353 0.6980
v 0.025694 0.163931 0.093928 0.5843 0.9960 0.7451
v 0.017523 0.164357 0.095912 0.7568 0.2941 1.0000
v 0.009943 0.164715 0.102113 0.8000 0.4784 1.0000
v 0.080067 0.118853 0.016461 0.7568 0.2941 1.0000
v 0.084434 0.121228 0.030536 0.1608 0.2667 0.1725
v 0.086107 0.118328 0.041500 0.1608 0.2667 0.1725
v 0.085182 0.142989 0.020155 0.7568 0.2941 1.0000
v 0.087887 0.146147 0.033869 0.1608 0.2667 0.1725
v 0.087972 0.147089 0.048300 0.1608 0.2667 0.1725
v 0.085619 0.167892 0.018508 0.7568 0.2941 1.0000
v 0.089687 0.170817 0.033283 0.1608 0.2667 0.1725
v 0.091575 0.171334 0.046587 0.1608 0.2667 0.1725
v 0.050042 0.121537 -0.062889 0.7568 0.8745 0.1216
v 0.058450 0.122214 -0.057949 0.7568 0.8745 0.1216
v 0.068849 0.119439 -0.051382 0.7568 0.8745 0.1216
v 0.054076 0.139803 -0.066498 0.7568 0.8745 0.1216
v 0.065199 0.141877 -0.059635 0.7568 0.8745 0.1216
v 0.076964 0.143904 -0.054902 0.7568 0.8745 0.1216
v 0.055311 0.163636 -0.062555 0.7137 0.8823 0.1255
v 0.064676 0.163212 -0.057317 0.7568 0.8745 0.1216
v 0.074152 0.162690 -0.052831 0.7568 0.8745 0.1216
v -0.004166 0.297858 -0.040949 0.2667 0.9411 0.1490
v -0.004166 0.297858 0.006281 0.3176 0.9764 1.0000
v 0.036736 0.297858 -0.017334 0.2667 0.9411 0.1490
v -0.042262 0.248514 0.029896 1.0000 1.0000 1.0000
v -0.084674 0.250511 0.007589 0.0157 0.7764 0.8745
v -0.042262 0.248514 -0.017334 0.0157 0.7764 0.8745
v -0.004166 0.297858 -0.017334 0.2667 0.9411 0.1490
v 0.016285 0.297858 -0.005526 0.2667 0.9411 0.1490
v 0.016285 0.297858 -0.029141 0.2667 0.9411 0.1490
v -0.004166 0.373579 -0.017334 0.2667 0.9411 0.1490
v 0.016285 0.373579 -0.029141 0.2667 0.9411 0.1490
v 0.016285 0.373579 -0.005526 0.2667 0.9411 0.1490
v 0.002651 0.297858 -0.021270 0.2667 0.9411 0.1490
v 0.009468 0.297858 -0.025205 0.2667 0.9411 0.1490
v 0.002651 0.373579 -0.021270 0.2667 0.9411 0.1490
v 0.009468 0.373579 -0.025205 0.2667 0.9411 0.1490
v 0.016285 0.323098 -0.029141 0.2667 0.9411 0.1490
v 0.016285 0.348339 -0.029141 0.2667 0.9411 0.1490
v -0.004166 0.348339 -0.017334 0.2667 0.9411 0.1490
v -0.004166 0.323098 -0.017334 0.4392 0.9490 0.3843
v 0.009468 0.323098 -0.025205 0.2667 0.9411 0.1490
v 0.009468 0.348339 -0.025205 0.2667 0.9411 0.1490
v 0.002651 0.323098 -0.021270 0.2667 0.9411 0.1490
v 0.002651 0.348339 -0.021270 0.2667 0.9411 0.1490
v -0.073655 0.323098 -0.169178 0.9411 0.3216 0.0000
v -0.073655 0.348339 -0.169178 0.9411 0.3216 0.0000
v -0.080472 0.323098 -0.165242 0.9411 0.3216 0.0000
v -0.080472 0.348339 -0.165242 0.9411 0.3216 0.0000
v 0.006059 0.348339 -0.023238 0.2667 0.9411 0.1490
v -0.077063 0.348339 -0.167210 0.9411 0.3216 0.0000
v -0.038911 0.348339 -0.093256 0.9411 0.3216 0.0000
v -0.032094 0.348339 -0.097192 0.9411 0.3216 0.0000
v -0.035502 0.348339 -0.095224 0.9411 0.3216 0.0000
v -0.077063 0.426071 -0.167210 0.9411 0.3216 0.0000
v -0.073655 0.426071 -0.169178 0.9411 0.3216 0.0000
v -0.032094 0.426071 -0.097192 0.7568 0.2941 1.0000
v -0.035502 0.426071 -0.095224 0.7568 0.2941 1.0000
v 0.111192 0.074987 -0.236086 0.3176 0.9764 1.0000
v 0.120511 0.078090 -0.229567 0.3176 0.9764 1.0000
v 0.103817 0.103159 -0.230120 0.7568 0.2941 1.0000
v 0.115571 0.105581 -0.228464 0.7568 0.2941 1.0000
v 0.012492 0.107471 -0.185280 0.2549 1.0000 0.5608
v 0.012172 0.131576 -0.185977 0.2549 1.0000 0.5608
v 0.025659 0.107731 -0.180958 0.2549 1.0000 0.5608
v 0.023749 0.132727 -0.185842 0.2549 1.0000 0.5608
v 0.175202 0.118343 0.011837 0.9215 0.0314 0.6550
v 0.177718 0.118189 0.022478 0.4980 0.0157 0.4510
v 0.183051 0.092368 0.010668 0.2275 0.0000 0.3608
v 0.182645 0.090185 0.023087 0.2275 0.0000 0.3608
v 0.081365 0.085591 0.029288 1.0000 0.0353 0.6980
v 0.083007 0.076257 0.029491 1.0000 0.0353 0.6980
v 0.179360 0.108854 0.022681 0.2275 0.0000 0.3608
v 0.181002 0.099519 0.022884 0.2275 0.0000 0.3608
v 0.149980 0.082430 0.025289 0.2275 0.0000 0.3608
v 0.117315 0.074676 0.027492 1.0000 0.0353 0.6980
v 0.112388 0.102680 0.026883 1.0000 0.0353 0.6980
v 0.145053 0.110434 0.024680 1.0000 0.0667 0.6980
v 0.114030 0.093345 0.027086 1.0000 0.0353 0.6980
v 0.146695 0.101100 0.024883 1.0000 0.0353 0.6980
v 0.115672 0.084011 0.027289 1.0000 0.0353 0.6980
v 0.148337 0.091765 0.025086 0.8117 0.0275 0.6000
v 0.121343 0.097293 0.149450 1.0000 0.0353 0.6980
v 0.154008 0.105047 0.147248 1.0000 1.0000 1.0000
v 0.122985 0.087958 0.149653 1.0000 0.0353 0.6980
v 0.155650 0.095713 0.147451 1.0000 1.0000 1.0000
v -0.245247 0.072731 0.015669 0.2039 0.1725 0.5059
v -0.250924 0.045447 0.014672 0.0275 0.1961 0.4745
v -0.245789 0.019213 0.015642 0.0275 0.1961 0.4745
v -0.245385 0.020288 0.003760 0.0275 0.1961 0.4745
v -0.248162 0.016687 -0.006477 0.0275 0.1961 0.4745
v -0.251567 0.043204 0.004466 0.0275 0.1961 0.4745
v -0.252060 0.043123 -0.013927 0.0275 0.1961 0.4745
v -0.247830 0.077337 0.002331 0.0275 0.1961 0.4745
v -0.244799 0.069933 -0.013988 0.0275 0.1961 0.4745
v -0.317382 0.083992 0.026680 0.2823 0.1490 0.5333
v -0.323059 0.056708 0.025683 0.0275 0.1961 0.4745
v -0.323702 0.054465 0.015477 0.0275 0.1961 0.4745
v -0.319965 0.088597 0.013342 1.0000 0.0000 0.9725
v -0.319275 0.074898 0.026348 0.2823 0.1490 0.5333
v -0.321167 0.065803 0.026015 0.0431 0.1961 0.4745
v -0.323274 0.055961 0.022281 0.0275 0.1961 0.4745
v -0.323488 0.055213 0.018879 0.0275 0.1961 0.4745
v -0.318243 0.085527 0.022234 1.0000 0.0000 0.9725
v -0.319104 0.087062 0.017788 1.0000 0.0000 0.9725
v -0.321211 0.077220 0.014054 1.0000 0.0000 0.9725
v -0.322456 0.065842 0.014765 0.2314 0.2863 0.5137
v -0.321597 0.065816 0.022265 0.0275 0.1961 0.4745
v -0.322026 0.065829 0.018515 0.0275 0.1961 0.4745
v -0.319920 0.075672 0.022250 0.9098 0.0627 0.9058
v -0.320565 0.076446 0.018152 1.0000 0.0000 0.9725
v 0.030201 0.091055 0.218538 0.3176 0.9764 1.0000
v 0.026355 0.066409 0.212384 1.0000 0.5137 0.9294
v 0.014736 0.069167 0.214967 1.0000 0.5137 0.9294
v 0.017502 0.092041 0.220744 1.0000 0.5137 0.9294
v -0.345124 0.069489 0.025856 1.0000 0.0000 0.9725
v -0.346026 0.070605 0.025029 1.0000 0.0000 0.9725
v -0.346264 0.070616 0.023191 1.0000 0.0000 0.9725
v -0.345553 0.069502 0.022106 1.0000 0.0000 0.9725
v -0.344720 0.078699 0.025027 1.0000 0.0000 0.9725
v -0.343447 0.079344 0.025841 1.0000 0.0000 0.9725
v -0.344092 0.080119 0.021743 1.0000 0.0000 0.9725
v -0.345031 0.079098 0.022890 1.0000 0.0000 0.9725
v 0.026834 0.090979 0.218524 0.3176 0.9764 1.0000
v 0.023646 0.091237 0.219415 0.3176 0.9764 1.0000
v 0.021046 0.091985 0.220249 1.0000 0.5137 0.9294
v 0.032017 0.084582 0.218249 1.0000 0.5137 0.9294
v 0.031547 0.077097 0.216132 1.0000 0.5137 0.9294
v 0.029296 0.072016 0.213157 1.0000 0.5137 0.9294
v 0.015322 0.086867 0.221954 1.0000 0.5137 0.9294
v 0.014628 0.080403 0.220170 1.0000 0.5137 0.9294
v 0.013634 0.073173 0.217108 1.0000 0.5137 0.9294
v 0.023859 0.065887 0.213500 1.0000 0.5137 0.9294
v 0.020455 0.066438 0.214221 1.0000 0.5137 0.9294
v 0.017257 0.067813 0.214627 1.0000 0.5137 0.9294
v 0.026882 0.071529 0.215248 1.0000 0.5137 0.9294
v 0.022245 0.071180 0.217110 1.0000 0.5137 0.9294
v 0.017477 0.072002 0.217433 1.0000 0.5137 0.9294
v 0.028646 0.076947 0.219110 1.0000 0.5137 0.9294
v 0.022726 0.077798 0.221531 1.0000 0.5137 0.9294
v 0.019494 0.079523 0.221172 1.0000 0.5137 0.9294
v 0.027455 0.085802 0.221807 1.0000 0.5137 0.9294
v 0.023523 0.086682 0.223704 1.0000 0.5137 0.9294
v 0.019857 0.087887 0.224798 1.0000 0.5137 0.9294
v 0.064641 0.149484 0.291225 1.0000 0.0353 0.6980
v 0.061453 0.149742 0.292115 1.0000 0.0353 0.6980
v 0.065262 0.144307 0.294508 1.0000 0.0353 0.6980
v 0.061330 0.145187 0.296405 1.0000 0.0353 0.6980
v 0.054684 0.051304 0.245512 0.3921 0.9882 1.0000
v 0.051744 0.045697 0.244738 0.3921 0.9882 1.0000
v 0.049247 0.045175 0.245855 0.3921 0.9882 1.0000
v 0.052271 0.050816 0.247602 0.3921 0.9882 1.0000
v -0.008082 0.042999 0.311360 1.0000 0.4667 0.6941
v -0.009076 0.035769 0.308298 1.0000 0.4667 0.6941
v -0.005234 0.034599 0.308624 1.0000 0.4667 0.6941
v -0.003217 0.042119 0.312362 1.0000 0.4667 0.6941
v 0.027041 0.089254 0.219618 0.3176 0.9764 1.0000
v 0.027248 0.087528 0.220713 0.3451 0.9686 1.0000
v 0.064848 0.147758 0.292319 1.0000 0.0353 0.6980
v 0.065055 0.146032 0.293414 1.0000 0.0353 0.6980
v 0.052039 0.129982 0.266991 1.0000 0.5137 0.9294
v 0.039436 0.110481 0.242758 1.0000 0.5137 0.9294
v 0.040057 0.105304 0.246041 1.0000 0.5137 0.9294
v 0.052660 0.124805 0.270274 1.0000 0.5137 0.9294
v 0.039850 0.107029 0.244946 1.0000 0.5137 0.9294
v 0.052453 0.126531 0.269180 1.0000 0.5137 0.9294
v 0.039643 0.108755 0.243852 1.0000 0.5137 0.9294
v 0.052246 0.128257 0.268086 1.0000 0.5137 0.9294
v 0.082846 0.101057 0.227393 1.0000 1.0000 1.0000
v 0.095448 0.120559 0.251627 1.0000 0.0353 0.6980
v 0.082639 0.102783 0.226299 1.0000 1.0000 1.0000
v 0.095241 0.122285 0.250532 1.0000 0.0353 0.6980
v -0.004166 -0.218330 0.053511 0.1333 0.4745 0.0745
v -0.004166 -0.218330 0.006281 0.1333 0.4745 0.0745
v -0.045068 -0.218330 0.029896 0.2275 0.0000 0.3608
v 0.036736 -0.261008 -0.017334 1.0000 0.4667 0.6941
v -0.004166 -0.261008 0.006281 0.1333 0.4745 0.0745
v -0.004166 -0.261008 -0.040948 1.0000 0.9647 0.0000
v 0.254405 0.082024 0.393759 0.4745 0.0314 0.4628
v 0.243899 0.082786 0.402720 0.4745 0.0314 0.4628
v 0.255990 0.110607 0.398594 0.4745 0.0314 0.4628
v 0.243660 0.107771 0.402974 0.4745 0.0314 0.4628
s 0
f 15 602 16
f 18 454 448
f 445 6 114
f 1 15 23
f 2 25 19
f 436 8 123
f 1 23 28
f 2 30 25
f 129 132 427
f 33 597 28
f 2 35 30
f 418 12 141
f 1 33 38
f 2 40 35
f 409 14 150
f 1 38 16
f 2 18 40
f 400 4 59
f 161 113 391
f 382 45 165
f 373 44 168
f 40 102 104
f 40 18 44
f 18 157 158
f 16 99 101
f 16 38 43
f 13 154 43
f 364 42 96
f 356 46 177
f 347 41 180
f 35 93 95
f 41 451 40
f 40 147 149
f 38 91 13
f 38 33 39
f 33 144 146
f 338 37 87
f 329 47 189
f 84 192 320
f 30 84 86
f 30 35 36
f 12 139 36
f 33 81 83
f 33 28 34
f 28 135 137
f 197 78 311
f 200 201 302
f 293 31 204
f 75 76 8
f 25 30 31
f 30 129 131
f 29 73 9
f 28 23 29
f 7 127 29
f 209 69 284
f 212 213 275
f 266 26 216
f 19 66 68
f 19 25 26
f 25 120 122
f 23 63 65
f 23 15 24
f 15 118 119
f 257 22 60
f 224 225 248
f 239 20 228
f 18 54 56
f 18 19 20
f 19 108 110
f 15 51 53
f 15 16 17
f 16 105 107
f 233 50 224
f 236 230 233
f 239 229 236
f 21 231 222
f 222 232 223
f 223 233 224
f 234 488 58
f 231 235 232
f 232 236 233
f 59 234 58
f 234 238 235
f 235 239 236
f 4 237 59
f 56 238 237
f 238 54 239
f 107 227 17
f 245 227 242
f 245 225 226
f 3 240 105
f 105 241 106
f 241 107 106
f 112 240 111
f 243 241 240
f 244 242 241
f 112 246 243
f 246 244 243
f 244 248 245
f 113 222 246
f 222 247 246
f 247 224 248
f 251 5 53
f 254 62 251
f 254 60 61
f 17 249 51
f 249 52 51
f 52 251 53
f 227 252 249
f 252 250 249
f 250 254 251
f 226 255 252
f 256 485 255
f 253 257 254
f 225 219 255
f 219 256 255
f 220 257 256
f 260 49 212
f 260 217 218
f 263 216 217
f 116 210 22
f 258 211 210
f 211 260 212
f 116 261 258
f 261 259 258
f 259 263 260
f 114 261 115
f 261 265 262
f 265 263 262
f 6 264 114
f 264 67 265
f 67 266 265
f 269 24 119
f 269 214 215
f 275 214 272
f 5 267 117
f 117 268 118
f 268 119 118
f 62 270 267
f 267 271 268
f 268 272 269
f 60 270 61
f 273 271 270
f 271 275 272
f 22 273 60
f 210 274 273
f 274 212 275
f 278 7 65
f 278 70 71
f 284 70 281
f 24 276 63
f 276 64 63
f 64 278 65
f 215 279 276
f 276 280 277
f 280 278 277
f 213 279 214
f 279 283 280
f 283 281 280
f 49 282 213
f 282 494 499
f 495 209 284
f 200 206 48
f 290 206 287
f 293 205 290
f 27 285 198
f 198 286 199
f 199 287 200
f 124 285 125
f 288 286 285
f 289 606 605
f 124 291 288
f 291 289 288
f 289 293 290
f 123 77 291
f 77 292 291
f 292 75 293
f 128 203 29
f 299 203 296
f 299 201 202
f 7 294 126
f 294 127 126
f 295 128 127
f 71 297 294
f 294 298 295
f 298 296 295
f 69 297 70
f 297 301 298
f 298 302 299
f 27 300 69
f 198 301 300
f 199 302 301
f 305 9 74
f 305 79 80
f 308 78 79
f 29 303 72
f 72 304 73
f 304 74 73
f 202 303 203
f 306 304 303
f 307 305 304
f 202 309 306
f 306 310 307
f 307 311 308
f 48 309 201
f 195 310 309
f 196 311 310
f 314 47 188
f 317 194 314
f 317 192 193
f 32 312 186
f 186 313 187
f 313 188 187
f 133 312 134
f 312 316 313
f 316 314 313
f 132 315 133
f 318 316 315
f 316 320 317
f 10 318 132
f 86 319 318
f 319 84 320
f 137 191 34
f 323 190 191
f 329 190 326
f 9 321 135
f 135 322 136
f 136 323 137
f 80 324 321
f 321 325 322
f 322 326 323
f 78 324 79
f 324 328 325
f 328 326 325
f 32 327 78
f 327 187 328
f 187 329 328
f 332 11 83
f 332 88 89
f 338 88 335
f 34 330 81
f 330 82 81
f 331 83 82
f 191 333 330
f 333 331 330
f 331 335 332
f 189 333 190
f 336 334 333
f 337 335 334
f 189 183 336
f 336 184 337
f 337 185 338
f 176 182 46
f 341 181 182
f 344 180 181
f 37 339 174
f 339 175 174
f 175 341 176
f 143 342 339
f 342 340 339
f 340 344 341
f 142 345 342
f 342 346 343
f 346 344 343
f 12 345 141
f 95 346 345
f 94 347 346
f 350 39 146
f 353 179 350
f 356 178 353
f 11 348 144
f 144 349 145
f 349 146 145
f 89 351 348
f 348 352 349
f 352 350 349
f 87 351 88
f 354 352 351
f 355 353 352
f 87 174 354
f 174 355 354
f 175 356 355
f 359 13 92
f 361 98 359
f 364 97 361
f 179 90 39
f 90 358 91
f 358 92 91
f 362 511 177
f 358 514 515
f 360 359 358
f 178 513 179
f 360 519 363
f 363 361 360
f 46 362 177
f 362 172 363
f 363 173 364
f 367 45 164
f 370 170 367
f 373 169 370
f 42 365 162
f 365 163 162
f 163 367 164
f 151 365 152
f 368 366 365
f 366 370 367
f 151 371 368
f 368 372 369
f 369 373 370
f 14 371 150
f 371 103 372
f 103 373 372
f 155 167 43
f 379 167 376
f 379 165 166
f 13 374 153
f 153 375 154
f 154 376 155
f 98 377 374
f 377 375 374
f 378 376 375
f 96 377 97
f 380 378 377
f 381 379 378
f 96 162 380
f 380 163 381
f 381 164 382
f 385 3 101
f 388 111 385
f 391 112 388
f 43 383 99
f 383 100 99
f 384 101 100
f 166 383 167
f 386 384 383
f 384 388 385
f 165 386 166
f 389 387 386
f 387 391 388
f 45 389 165
f 389 160 390
f 160 391 390
f 394 21 161
f 394 58 57
f 397 59 58
f 170 159 45
f 392 160 159
f 160 394 161
f 169 392 170
f 392 396 393
f 393 397 394
f 168 395 169
f 395 399 396
f 396 400 397
f 44 398 168
f 158 399 398
f 157 400 399
f 173 152 42
f 406 152 403
f 406 150 151
f 182 171 46
f 401 172 171
f 402 173 172
f 181 401 182
f 404 402 401
f 405 403 402
f 181 407 404
f 404 408 405
f 408 406 405
f 180 149 407
f 149 408 407
f 408 147 409
f 412 37 185
f 415 143 412
f 415 141 142
f 194 183 47
f 410 184 183
f 411 185 184
f 193 410 194
f 413 411 410
f 414 412 411
f 193 416 413
f 416 414 413
f 417 415 414
f 192 140 416
f 140 417 416
f 417 138 418
f 421 551 553
f 424 134 421
f 424 132 133
f 206 195 48
f 419 196 195
f 196 421 197
f 205 419 206
f 422 420 419
f 420 424 421
f 204 422 205
f 425 423 422
f 423 427 424
f 204 131 425
f 425 130 426
f 130 427 426
f 209 125 27
f 433 125 430
f 433 123 124
f 49 428 207
f 428 208 207
f 208 430 209
f 218 431 428
f 431 429 428
f 432 430 429
f 216 431 217
f 434 432 431
f 435 433 432
f 26 434 216
f 434 121 435
f 435 120 436
f 221 116 22
f 442 116 439
f 442 114 115
f 50 437 219
f 219 438 220
f 220 439 221
f 229 437 230
f 440 438 437
f 441 439 438
f 228 440 229
f 443 441 440
f 444 442 441
f 228 110 443
f 443 109 444
f 444 108 445
f 447 453 452
f 19 453 447
f 2 452 446
f 449 451 450
f 40 449 35
f 41 449 450
f 458 459 446
f 462 463 457
f 453 448 454
f 457 461 460
f 453 455 464
f 464 460 469
f 467 456 463
f 474 460 461
f 459 462 454
f 466 463 462
f 458 466 459
f 469 476 472
f 452 468 458
f 465 469 468
f 472 475 471
f 468 470 466
f 466 471 477
f 471 481 477
f 478 473 476
f 469 478 476
f 467 478 474
f 481 479 482
f 475 480 471
f 478 479 475
f 477 482 478
f 485 484 483
f 256 484 486
f 252 484 253
f 252 485 483
f 487 490 489
f 57 488 487
f 57 489 231
f 234 489 490
f 491 497 498
f 282 491 493
f 501 492 491
f 506 494 498
f 502 497 492
f 504 498 497
f 208 503 501
f 501 504 502
f 495 505 503
f 504 510 506
f 496 500 505
f 505 499 506
f 507 510 508
f 505 510 509
f 503 509 507
f 503 508 504
f 513 516 514
f 514 517 515
f 518 529 528
f 516 519 517
f 178 511 512
f 360 515 517
f 179 514 357
f 362 519 518
f 529 530 535
f 512 526 527
f 511 524 525
f 516 531 523
f 527 531 522
f 535 531 533
f 521 532 526
f 526 533 527
f 524 532 525
f 134 550 548
f 520 534 524
f 528 535 534
f 568 539 554
f 32 556 554
f 197 557 559
f 542 540 541
f 545 547 544
f 541 545 544
f 543 547 546
f 544 542 541
f 532 545 540
f 532 543 533
f 535 543 546
f 535 545 534
f 562 538 559
f 556 579 578
f 565 554 555
f 560 573 553
f 557 561 558
f 561 559 558
f 552 560 553
f 563 561 560
f 564 562 561
f 551 563 552
f 566 564 563
f 567 565 564
f 536 581 582
f 549 569 585
f 567 550 568
f 584 569 572
f 567 570 549
f 587 588 572
f 585 583 592
f 574 576 575
f 560 575 576
f 537 575 557
f 537 573 574
f 579 577 578
f 556 577 555
f 565 579 562
f 565 577 580
f 590 571 588
f 592 584 590
f 582 587 566
f 589 588 587
f 581 589 582
f 591 596 595
f 548 591 581
f 586 592 591
f 595 594 593
f 591 593 589
f 589 594 590
f 592 594 596
f 598 597 599
f 1 599 33
f 28 598 1
f 601 602 600
f 16 601 1
f 1 600 15
f 603 606 604
f 289 603 286
f 287 603 604
f 287 606 290
f 15 600 602
f 448 19 18
f 18 446 454
f 445 108 6
f 436 120 8
f 129 10 132
f 33 599 597
f 418 138 12
f 409 147 14
f 400 156 4
f 161 21 113
f 382 164 45
f 373 102 44
f 40 44 102
f 102 103 104
f 104 14 40
f 18 4 156
f 18 156 157
f 158 44 18
f 16 43 99
f 99 100 101
f 101 3 16
f 43 38 13
f 13 153 154
f 154 155 43
f 364 173 42
f 356 176 46
f 347 93 41
f 35 41 93
f 93 94 95
f 95 12 35
f 41 450 451
f 40 14 147
f 147 148 149
f 149 41 40
f 38 39 90
f 91 92 13
f 38 90 91
f 33 11 144
f 144 145 146
f 146 39 33
f 338 185 37
f 329 188 47
f 84 36 192
f 30 36 84
f 84 85 86
f 86 10 30
f 36 35 12
f 12 138 139
f 139 140 36
f 33 34 81
f 81 82 83
f 83 11 33
f 28 9 135
f 135 136 137
f 137 34 28
f 197 32 78
f 200 48 201
f 293 75 31
f 8 25 31
f 8 31 75
f 76 77 8
f 30 10 129
f 129 130 131
f 131 31 30
f 9 28 29
f 29 72 73
f 73 74 9
f 29 23 7
f 7 126 127
f 127 128 29
f 209 27 69
f 212 49 213
f 266 66 26
f 19 26 66
f 66 67 68
f 68 6 19
f 25 8 120
f 120 121 122
f 122 26 25
f 23 24 63
f 63 64 65
f 65 7 23
f 15 5 117
f 15 117 118
f 119 24 15
f 257 221 22
f 224 50 225
f 239 54 20
f 18 20 54
f 54 55 56
f 56 4 18
f 19 6 108
f 108 109 110
f 110 20 19
f 15 17 51
f 51 52 53
f 53 5 15
f 16 3 105
f 105 106 107
f 107 17 16
f 233 230 50
f 236 229 230
f 239 228 229
f 21 57 231
f 222 231 232
f 223 232 233
f 234 490 488
f 231 234 235
f 232 235 236
f 59 237 234
f 234 237 238
f 235 238 239
f 4 56 237
f 56 55 238
f 238 55 54
f 107 242 227
f 245 226 227
f 245 248 225
f 3 111 240
f 105 240 241
f 241 242 107
f 112 243 240
f 243 244 241
f 244 245 242
f 112 113 246
f 246 247 244
f 244 247 248
f 113 21 222
f 222 223 247
f 247 223 224
f 251 62 5
f 254 61 62
f 254 257 60
f 17 227 249
f 249 250 52
f 52 250 251
f 227 226 252
f 252 253 250
f 250 253 254
f 226 225 255
f 256 486 485
f 253 256 257
f 225 50 219
f 219 220 256
f 220 221 257
f 260 218 49
f 260 263 217
f 263 266 216
f 116 258 210
f 258 259 211
f 211 259 260
f 116 115 261
f 261 262 259
f 259 262 263
f 114 264 261
f 261 264 265
f 265 266 263
f 6 68 264
f 264 68 67
f 67 66 266
f 269 215 24
f 269 272 214
f 275 213 214
f 5 62 267
f 117 267 268
f 268 269 119
f 62 61 270
f 267 270 271
f 268 271 272
f 60 273 270
f 273 274 271
f 271 274 275
f 22 210 273
f 210 211 274
f 274 211 212
f 278 71 7
f 278 281 70
f 284 69 70
f 24 215 276
f 276 277 64
f 64 277 278
f 215 214 279
f 276 279 280
f 280 281 278
f 213 282 279
f 279 282 283
f 283 284 281
f 49 207 282
f 500 283 282
f 282 493 494
f 499 500 282
f 284 283 496
f 495 208 209
f 284 496 495
f 200 287 206
f 290 205 206
f 293 204 205
f 27 125 285
f 198 285 286
f 199 286 287
f 124 288 285
f 288 289 286
f 289 290 606
f 124 123 291
f 291 292 289
f 289 292 293
f 123 8 77
f 77 76 292
f 292 76 75
f 128 296 203
f 299 202 203
f 299 302 201
f 7 71 294
f 294 295 127
f 295 296 128
f 71 70 297
f 294 297 298
f 298 299 296
f 69 300 297
f 297 300 301
f 298 301 302
f 27 198 300
f 198 199 301
f 199 200 302
f 305 80 9
f 305 308 79
f 308 311 78
f 29 203 303
f 72 303 304
f 304 305 74
f 202 306 303
f 306 307 304
f 307 308 305
f 202 201 309
f 306 309 310
f 307 310 311
f 48 195 309
f 195 196 310
f 196 197 311
f 314 194 47
f 317 193 194
f 317 320 192
f 32 134 312
f 186 312 313
f 313 314 188
f 133 315 312
f 312 315 316
f 316 317 314
f 132 318 315
f 318 319 316
f 316 319 320
f 10 86 318
f 86 85 319
f 319 85 84
f 137 323 191
f 323 326 190
f 329 189 190
f 9 80 321
f 135 321 322
f 136 322 323
f 80 79 324
f 321 324 325
f 322 325 326
f 78 327 324
f 324 327 328
f 328 329 326
f 32 186 327
f 327 186 187
f 187 188 329
f 332 89 11
f 332 335 88
f 338 87 88
f 34 191 330
f 330 331 82
f 331 332 83
f 191 190 333
f 333 334 331
f 331 334 335
f 189 336 333
f 336 337 334
f 337 338 335
f 189 47 183
f 336 183 184
f 337 184 185
f 176 341 182
f 341 344 181
f 344 347 180
f 37 143 339
f 339 340 175
f 175 340 341
f 143 142 342
f 342 343 340
f 340 343 344
f 142 141 345
f 342 345 346
f 346 347 344
f 12 95 345
f 95 94 346
f 94 93 347
f 350 179 39
f 353 178 179
f 356 177 178
f 11 89 348
f 144 348 349
f 349 350 146
f 89 88 351
f 348 351 352
f 352 353 350
f 87 354 351
f 354 355 352
f 355 356 353
f 87 37 174
f 174 175 355
f 175 176 356
f 359 98 13
f 361 97 98
f 364 96 97
f 179 357 90
f 90 357 358
f 358 359 92
f 362 518 511
f 358 357 514
f 360 361 359
f 178 512 513
f 360 517 519
f 363 364 361
f 46 171 362
f 362 171 172
f 363 172 173
f 367 170 45
f 370 169 170
f 373 168 169
f 42 152 365
f 365 366 163
f 163 366 367
f 151 368 365
f 368 369 366
f 366 369 370
f 151 150 371
f 368 371 372
f 369 372 373
f 14 104 371
f 371 104 103
f 103 102 373
f 155 376 167
f 379 166 167
f 379 382 165
f 13 98 374
f 153 374 375
f 154 375 376
f 98 97 377
f 377 378 375
f 378 379 376
f 96 380 377
f 380 381 378
f 381 382 379
f 96 42 162
f 380 162 163
f 381 163 164
f 385 111 3
f 388 112 111
f 391 113 112
f 43 167 383
f 383 384 100
f 384 385 101
f 166 386 383
f 386 387 384
f 384 387 388
f 165 389 386
f 389 390 387
f 387 390 391
f 45 159 389
f 389 159 160
f 160 161 391
f 394 57 21
f 394 397 58
f 397 400 59
f 170 392 159
f 392 393 160
f 160 393 394
f 169 395 392
f 392 395 396
f 393 396 397
f 168 398 395
f 395 398 399
f 396 399 400
f 44 158 398
f 158 157 399
f 157 156 400
f 173 403 152
f 406 151 152
f 406 409 150
f 182 401 171
f 401 402 172
f 402 403 173
f 181 404 401
f 404 405 402
f 405 406 403
f 181 180 407
f 404 407 408
f 408 409 406
f 180 41 149
f 149 148 408
f 408 148 147
f 412 143 37
f 415 142 143
f 415 418 141
f 194 410 183
f 410 411 184
f 411 412 185
f 193 413 410
f 413 414 411
f 414 415 412
f 193 192 416
f 416 417 414
f 417 418 415
f 192 36 140
f 140 139 417
f 417 139 138
f 537 197 421
f 421 536 551
f 551 552 553
f 553 537 421
f 424 133 134
f 424 427 132
f 206 419 195
f 419 420 196
f 196 420 421
f 205 422 419
f 422 423 420
f 420 423 424
f 204 425 422
f 425 426 423
f 423 426 427
f 204 31 131
f 425 131 130
f 130 129 427
f 209 430 125
f 433 124 125
f 433 436 123
f 49 218 428
f 428 429 208
f 208 429 430
f 218 217 431
f 431 432 429
f 432 433 430
f 216 434 431
f 434 435 432
f 435 436 433
f 26 122 434
f 434 122 121
f 435 121 120
f 221 439 116
f 442 115 116
f 442 445 114
f 50 230 437
f 219 437 438
f 220 438 439
f 229 440 437
f 440 441 438
f 441 442 439
f 228 443 440
f 443 444 441
f 444 445 442
f 228 20 110
f 443 110 109
f 444 109 108
f 447 2 19
f 19 448 453
f 446 18 2
f 2 447 452
f 40 451 449
f 41 35 449
f 446 452 458
f 459 454 446
f 457 453 454
f 457 454 462
f 463 456 457
f 460 455 457
f 457 456 461
f 465 452 453
f 453 457 455
f 464 465 453
f 464 455 460
f 467 461 456
f 461 467 474
f 474 469 460
f 459 466 462
f 466 467 463
f 458 468 466
f 472 468 469
f 476 473 472
f 452 465 468
f 465 464 469
f 471 470 472
f 472 473 475
f 468 472 470
f 477 467 466
f 466 470 471
f 471 480 481
f 478 475 473
f 469 474 478
f 467 477 478
f 481 480 479
f 475 479 480
f 478 482 479
f 477 481 482
f 485 486 484
f 256 253 484
f 252 483 484
f 252 255 485
f 487 488 490
f 57 58 488
f 57 487 489
f 234 231 489
f 494 493 491
f 491 492 497
f 498 494 491
f 282 207 491
f 491 207 208
f 501 502 492
f 491 208 501
f 506 499 494
f 502 504 497
f 504 506 498
f 208 495 503
f 501 503 504
f 495 496 505
f 504 508 510
f 496 283 500
f 505 500 499
f 507 509 510
f 505 506 510
f 503 505 509
f 503 507 508
f 513 512 516
f 514 516 517
f 520 511 518
f 518 523 529
f 528 520 518
f 516 518 519
f 178 177 511
f 360 358 515
f 179 513 514
f 362 363 519
f 529 523 530
f 522 516 512
f 512 521 526
f 527 522 512
f 521 512 511
f 511 520 524
f 525 521 511
f 523 518 516
f 516 522 531
f 531 530 523
f 527 533 531
f 535 530 531
f 521 525 532
f 526 532 533
f 524 534 532
f 536 421 134
f 134 539 550
f 550 549 548
f 548 536 134
f 520 528 534
f 528 529 535
f 568 550 539
f 539 134 32
f 32 538 556
f 556 555 554
f 554 539 32
f 538 32 197
f 197 537 557
f 557 558 559
f 559 538 197
f 542 543 540
f 545 546 547
f 541 540 545
f 543 542 547
f 544 547 542
f 532 534 545
f 532 540 543
f 535 533 543
f 535 546 545
f 562 556 538
f 556 562 579
f 565 568 554
f 560 576 573
f 557 560 561
f 561 562 559
f 552 563 560
f 563 564 561
f 564 565 562
f 551 566 563
f 566 567 564
f 567 568 565
f 566 551 536
f 536 548 581
f 582 566 536
f 586 548 549
f 549 570 569
f 585 586 549
f 567 549 550
f 572 571 584
f 584 583 569
f 569 570 572
f 567 572 570
f 572 567 566
f 572 566 587
f 588 571 572
f 585 569 583
f 574 573 576
f 560 557 575
f 537 574 575
f 537 553 573
f 579 580 577
f 556 578 577
f 565 580 579
f 565 555 577
f 590 584 571
f 592 583 584
f 582 589 587
f 589 590 588
f 581 591 589
f 591 592 596
f 548 586 591
f 586 585 592
f 595 596 594
f 591 595 593
f 589 593 594
f 592 590 594
f 1 598 599
f 28 597 598
f 16 602 601
f 1 601 600
f 603 605 606
f 289 605 603
f 287 286 603
f 287 604 606
