# Blender 5.1.1
# www.blender.org
o Cube
v 1.000000 1.000000 -1.000000
v 1.000000 -1.000000 -1.000000
v 1.000000 1.000000 1.000000
v 1.000000 -1.000000 1.000000
v -1.000000 1.000000 -1.000000
v -1.000000 -1.000000 -1.000000
v -1.000000 1.000000 1.000000
v -1.000000 -1.000000 1.000000
v -1.000000 -1.000000 -0.600000
v -1.000000 -1.000000 -0.200000
v -1.000000 -1.000000 0.200000
v -1.000000 -1.000000 0.600000
v 0.600000 -1.000000 -1.000000
v 0.200000 -1.000000 -1.000000
v -0.200000 -1.000000 -1.000000
v -0.600000 -1.000000 -1.000000
v 1.000000 0.600000 -1.000000
v 1.000000 0.200000 -1.000000
v 1.000000 -0.200000 -1.000000
v 1.000000 -0.600000 -1.000000
v -1.000000 -0.600000 1.000000
v -1.000000 -0.200000 1.000000
v -1.000000 0.200000 1.000000
v -1.000000 0.600000 1.000000
v 1.000000 0.600000 1.000000
v 1.000000 0.200000 1.000000
v 1.000000 -0.200000 1.000000
v 1.000000 -0.600000 1.000000
v -1.000000 0.600000 -1.000000
v -1.000000 0.200000 -1.000000
v -1.000000 -0.200000 -1.000000
v -1.000000 -0.600000 -1.000000
v 0.600000 1.000000 1.000000
v 0.200000 1.000000 1.000000
v -0.200000 1.000000 1.000000
v -0.600000 1.000000 1.000000
v 1.000000 1.000000 -0.600000
v 1.000000 1.000000 -0.200000
v 1.000000 1.000000 0.200000
v 1.000000 1.000000 0.600000
v -0.600000 -1.000000 1.000000
v -0.200000 -1.000000 1.000000
v 0.200000 -1.000000 1.000000
v 0.600000 -1.000000 1.000000
v -1.000000 1.000000 0.600000
v -1.000000 1.000000 0.200000
v -1.000000 1.000000 -0.200000
v -1.000000 1.000000 -0.600000
v -0.600000 1.000000 -1.000000
v -0.200000 1.000000 -1.000000
v 0.200000 1.000000 -1.000000
v 0.600000 1.000000 -1.000000
v 1.000000 -1.000000 0.600000
v 1.000000 -1.000000 0.200000
v 1.000000 -1.000000 -0.200000
v 1.000000 -1.000000 -0.600000
v -0.600000 -0.600000 -1.000000
v -0.200000 -0.600000 -1.000000
v 0.200000 -0.600000 -1.000000
v 0.600000 -0.600000 -1.000000
v -0.600000 -0.200000 -1.000000
v -0.200000 -0.200000 -1.000000
v 0.200000 -0.200000 -1.000000
v 0.600000 -0.200000 -1.000000
v -0.600000 0.200000 -1.000000
v -0.200000 0.200000 -1.000000
v 0.200000 0.200000 -1.000000
v 0.600000 0.200000 -1.000000
v -0.600000 0.600000 -1.000000
v -0.200000 0.600000 -1.000000
v 0.200000 0.600000 -1.000000
v 0.600000 0.600000 -1.000000
v 1.000000 -0.600000 -0.600000
v 1.000000 -0.600000 -0.200000
v 1.000000 -0.600000 0.200000
v 1.000000 -0.600000 0.600000
v 1.000000 -0.200000 -0.600000
v 1.000000 -0.200000 -0.200000
v 1.000000 -0.200000 0.200000
v 1.000000 -0.200000 0.600000
v 1.000000 0.200000 -0.600000
v 1.000000 0.200000 -0.200000
v 1.000000 0.200000 0.200000
v 1.000000 0.200000 0.600000
v 1.000000 0.600000 -0.600000
v 1.000000 0.600000 -0.200000
v 1.000000 0.600000 0.200000
v 1.000000 0.600000 0.600000
v -0.600000 -1.000000 -0.600000
v -0.600000 -1.000000 -0.200000
v -0.600000 -1.000000 0.200000
v -0.600000 -1.000000 0.600000
v -0.200000 -1.000000 -0.600000
v -0.200000 -1.000000 -0.200000
v -0.200000 -1.000000 0.200000
v -0.200000 -1.000000 0.600000
v 0.200000 -1.000000 -0.600000
v 0.200000 -1.000000 -0.200000
v 0.200000 -1.000000 0.200000
v 0.200000 -1.000000 0.600000
v 0.600000 -1.000000 -0.600000
v 0.600000 -1.000000 -0.200000
v 0.600000 -1.000000 0.200000
v 0.600000 -1.000000 0.600000
v -1.000000 -0.600000 0.600000
v -1.000000 -0.600000 0.200000
v -1.000000 -0.600000 -0.200000
v -1.000000 -0.600000 -0.600000
v -1.000000 -0.200000 0.600000
v -1.000000 -0.200000 0.200000
v -1.000000 -0.200000 -0.200000
v -1.000000 -0.200000 -0.600000
v -1.000000 0.200000 0.600000
v -1.000000 0.200000 0.200000
v -1.000000 0.200000 -0.200000
v -1.000000 0.200000 -0.600000
v -1.000000 0.600000 0.600000
v -1.000000 0.600000 0.200000
v -1.000000 0.600000 -0.200000
v -1.000000 0.600000 -0.600000
v 0.600000 -0.600000 1.000000
v 0.200000 -0.600000 1.000000
v -0.200000 -0.600000 1.000000
v -0.600000 -0.600000 1.000000
v 0.600000 -0.200000 1.000000
v 0.200000 -0.200000 1.000000
v -0.200000 -0.200000 1.000000
v -0.600000 -0.200000 1.000000
v 0.600000 0.200000 1.000000
v 0.200000 0.200000 1.000000
v -0.200000 0.200000 1.000000
v -0.600000 0.200000 1.000000
v 0.600000 0.600000 1.000000
v 0.200000 0.600000 1.000000
v -0.200000 0.600000 1.000000
v -0.600000 0.600000 1.000000
v 0.600000 1.000000 -0.600000
v 0.600000 1.000000 -0.200000
v 0.600000 1.000000 0.200000
v 0.600000 1.000000 0.600000
v 0.200000 1.000000 -0.600000
v 0.200000 1.000000 -0.200000
v 0.200000 1.000000 0.200000
v 0.200000 1.000000 0.600000
v -0.200000 1.000000 -0.600000
v -0.200000 1.000000 -0.200000
v -0.200000 1.000000 0.200000
v -0.200000 1.000000 0.600000
v -0.600000 1.000000 -0.600000
v -0.600000 1.000000 -0.200000
v -0.600000 1.000000 0.200000
v -0.600000 1.000000 0.600000
v 3.067558 -0.200000 -0.200000
v 3.067558 -0.200000 0.200000
v 3.067558 0.200000 -0.200000
v 3.067558 0.200000 0.200000
v 0.200000 0.200000 3.295713
v -0.200000 0.200000 3.295713
v 0.200000 0.600000 3.295713
v -0.200000 0.600000 3.295713
v -0.200000 -0.600000 -3.511521
v 0.200000 -0.600000 -3.511521
v -0.200000 -0.200000 -3.511521
v 0.200000 -0.200000 -3.511521
v -0.600000 -3.163779 0.200000
v -0.600000 -3.163779 0.600000
v -0.200000 -3.163779 0.200000
v -0.200000 -3.163779 0.600000
v -1.000000 3.374206 0.200000
v -1.000000 3.374206 -0.200000
v -0.600000 3.374206 -0.200000
v -0.600000 3.374206 0.200000
v -1.982027 -1.000000 -0.200000
v -1.982027 -1.000000 0.200000
v -1.982027 -0.600000 0.200000
v -1.982027 -0.600000 -0.200000
v -2.047999 -0.200000 0.200000
v -2.047999 -0.200000 -0.200000
v -2.047999 0.200000 0.200000
v -2.047999 0.200000 -0.200000
v 1.000000 0.200000 -4.443268
v 1.000000 -0.200000 -4.443268
v 0.600000 -0.200000 -4.443268
v 0.600000 0.200000 -4.443268
s 0
f 45 36 152
f 36 24 136
f 48 29 120
f 53 44 104
f 40 25 88
f 52 17 72
f 60 2 13
f 64 20 60
f 18 184 68
f 72 18 68
f 32 16 6
f 57 15 16
f 58 14 15
f 59 13 14
f 31 57 32
f 61 58 57
f 63 163 62
f 63 60 59
f 30 61 31
f 65 62 61
f 66 63 62
f 67 64 63
f 29 65 30
f 69 66 65
f 70 67 66
f 71 68 67
f 5 69 29
f 49 70 69
f 50 71 70
f 51 72 71
f 76 4 53
f 80 28 76
f 84 27 80
f 88 26 84
f 20 56 2
f 73 55 56
f 74 54 55
f 75 53 54
f 19 73 20
f 77 74 73
f 78 75 74
f 79 76 75
f 18 77 19
f 81 78 77
f 78 154 79
f 83 80 79
f 17 81 18
f 85 82 81
f 86 83 82
f 87 84 83
f 1 85 17
f 37 86 85
f 38 87 86
f 39 88 87
f 92 8 12
f 96 41 92
f 100 42 96
f 104 43 100
f 16 9 6
f 89 10 9
f 90 11 10
f 91 12 11
f 15 89 16
f 93 90 89
f 94 91 90
f 96 167 95
f 14 93 15
f 97 94 93
f 98 95 94
f 99 96 95
f 13 97 14
f 101 98 97
f 102 99 98
f 103 100 99
f 2 101 13
f 56 102 101
f 55 103 102
f 54 104 103
f 108 6 9
f 112 32 108
f 116 31 112
f 120 30 116
f 21 12 8
f 105 11 12
f 10 176 107
f 107 9 10
f 22 105 21
f 109 106 105
f 110 107 106
f 111 108 107
f 23 109 22
f 113 110 109
f 115 179 114
f 115 112 111
f 24 113 23
f 117 114 113
f 118 115 114
f 119 116 115
f 7 117 24
f 45 118 117
f 46 119 118
f 47 120 119
f 124 8 41
f 128 21 124
f 132 22 128
f 136 23 132
f 28 44 4
f 121 43 44
f 122 42 43
f 123 41 42
f 27 121 28
f 125 122 121
f 126 123 122
f 127 124 123
f 26 125 27
f 129 126 125
f 130 127 126
f 131 128 127
f 25 129 26
f 133 130 129
f 130 158 131
f 135 132 131
f 3 133 25
f 33 134 133
f 34 135 134
f 35 136 135
f 140 3 40
f 144 33 140
f 148 34 144
f 152 35 148
f 52 37 1
f 137 38 37
f 138 39 38
f 139 40 39
f 51 137 52
f 141 138 137
f 142 139 138
f 143 140 139
f 50 141 51
f 145 142 141
f 146 143 142
f 147 144 143
f 49 145 50
f 149 146 145
f 150 147 146
f 151 148 147
f 5 149 49
f 48 150 149
f 46 170 47
f 46 152 151
f 155 154 153
f 79 156 83
f 83 155 82
f 82 153 78
f 159 158 157
f 134 157 130
f 135 159 134
f 131 160 135
f 163 162 161
f 59 164 63
f 58 162 59
f 62 161 58
f 167 166 165
f 92 168 96
f 91 166 92
f 95 165 91
f 170 172 171
f 47 171 150
f 150 172 151
f 151 169 46
f 175 173 174
f 107 175 106
f 11 173 10
f 106 174 11
f 179 178 177
f 114 177 110
f 110 178 111
f 111 180 115
f 184 182 183
f 19 181 18
f 68 183 64
f 64 182 19
f 45 7 36
f 36 7 24
f 48 5 29
f 53 4 44
f 40 3 25
f 52 1 17
f 60 20 2
f 64 19 20
f 18 181 184
f 72 17 18
f 32 57 16
f 57 58 15
f 58 59 14
f 59 60 13
f 31 61 57
f 61 62 58
f 63 164 163
f 63 64 60
f 30 65 61
f 65 66 62
f 66 67 63
f 67 68 64
f 29 69 65
f 69 70 66
f 70 71 67
f 71 72 68
f 5 49 69
f 49 50 70
f 50 51 71
f 51 52 72
f 76 28 4
f 80 27 28
f 84 26 27
f 88 25 26
f 20 73 56
f 73 74 55
f 74 75 54
f 75 76 53
f 19 77 73
f 77 78 74
f 78 79 75
f 79 80 76
f 18 81 77
f 81 82 78
f 78 153 154
f 83 84 80
f 17 85 81
f 85 86 82
f 86 87 83
f 87 88 84
f 1 37 85
f 37 38 86
f 38 39 87
f 39 40 88
f 92 41 8
f 96 42 41
f 100 43 42
f 104 44 43
f 16 89 9
f 89 90 10
f 90 91 11
f 91 92 12
f 15 93 89
f 93 94 90
f 94 95 91
f 96 168 167
f 14 97 93
f 97 98 94
f 98 99 95
f 99 100 96
f 13 101 97
f 101 102 98
f 102 103 99
f 103 104 100
f 2 56 101
f 56 55 102
f 55 54 103
f 54 53 104
f 108 32 6
f 112 31 32
f 116 30 31
f 120 29 30
f 21 105 12
f 105 106 11
f 10 173 176
f 107 108 9
f 22 109 105
f 109 110 106
f 110 111 107
f 111 112 108
f 23 113 109
f 113 114 110
f 115 180 179
f 115 116 112
f 24 117 113
f 117 118 114
f 118 119 115
f 119 120 116
f 7 45 117
f 45 46 118
f 46 47 119
f 47 48 120
f 124 21 8
f 128 22 21
f 132 23 22
f 136 24 23
f 28 121 44
f 121 122 43
f 122 123 42
f 123 124 41
f 27 125 121
f 125 126 122
f 126 127 123
f 127 128 124
f 26 129 125
f 129 130 126
f 130 131 127
f 131 132 128
f 25 133 129
f 133 134 130
f 130 157 158
f 135 136 132
f 3 33 133
f 33 34 134
f 34 35 135
f 35 36 136
f 140 33 3
f 144 34 33
f 148 35 34
f 152 36 35
f 52 137 37
f 137 138 38
f 138 139 39
f 139 140 40
f 51 141 137
f 141 142 138
f 142 143 139
f 143 144 140
f 50 145 141
f 145 146 142
f 146 147 143
f 147 148 144
f 49 149 145
f 149 150 146
f 150 151 147
f 151 152 148
f 5 48 149
f 48 47 150
f 46 169 170
f 46 45 152
f 155 156 154
f 79 154 156
f 83 156 155
f 82 155 153
f 159 160 158
f 134 159 157
f 135 160 159
f 131 158 160
f 163 164 162
f 59 162 164
f 58 161 162
f 62 163 161
f 167 168 166
f 92 166 168
f 91 165 166
f 95 167 165
f 170 169 172
f 47 170 171
f 150 171 172
f 151 172 169
f 175 176 173
f 107 176 175
f 11 174 173
f 106 175 174
f 179 180 178
f 114 179 177
f 110 177 178
f 111 178 180
f 184 181 182
f 19 182 181
f 68 184 183
f 64 183 182
