# Blender 5.1.1
# www.blender.org
o Cube
v 0.100000 0.100000 -0.100000 0.0157 0.6510 1.0000
v 0.100000 -0.100000 -0.100000 0.0000 1.0000 0.0706
v 0.100000 0.100000 0.100000 0.0157 0.6510 1.0000
v 0.100000 -0.100000 0.100000 1.0000 0.9607 0.1843
v -0.100000 0.100000 -0.100000 0.0157 0.6510 1.0000
v -0.100000 -0.100000 -0.100000 1.0000 0.5804 0.5804
v -0.100000 0.100000 0.100000 0.0157 0.6510 1.0000
v -0.100000 -0.100000 0.100000 1.0000 0.0745 0.0627
v -0.100000 -0.100000 -0.033333 1.0000 0.0745 0.0627
v -0.100000 -0.100000 0.033333 1.0000 0.0745 0.0627
v 0.033333 -0.100000 -0.100000 0.0000 1.0000 0.0706
v -0.033333 -0.100000 -0.100000 0.0000 1.0000 0.0706
v 0.100000 0.033333 -0.100000 0.0000 1.0000 0.0706
v 0.100000 -0.033333 -0.100000 0.9137 1.0000 0.9137
v -0.100000 -0.033333 0.100000 1.0000 0.0745 0.0627
v -0.100000 0.033333 0.100000 1.0000 0.0745 0.0627
v 0.100000 0.033333 0.100000 0.7176 0.0000 1.0000
v 0.100000 -0.033333 0.100000 0.7176 0.0000 1.0000
v -0.100000 0.033333 -0.100000 1.0000 0.0745 0.0627
v -0.100000 -0.033333 -0.100000 1.0000 0.0745 0.0627
v 0.033333 0.100000 0.100000 0.0157 0.6510 1.0000
v -0.033333 0.100000 0.100000 0.0157 0.6510 1.0000
v 0.100000 0.100000 -0.033333 0.0157 0.6510 1.0000
v 0.100000 0.100000 0.033333 0.0157 0.6510 1.0000
v -0.033333 -0.100000 0.100000 1.0000 1.0000 1.0000
v 0.033333 -0.100000 0.100000 1.0000 0.9607 0.1843
v -0.100000 0.100000 0.033333 0.0157 0.6510 1.0000
v -0.100000 0.100000 -0.033333 0.0157 0.6510 1.0000
v -0.033333 0.100000 -0.100000 0.0157 0.6510 1.0000
v 0.033333 0.100000 -0.100000 0.0157 0.6510 1.0000
v 0.100000 -0.100000 0.033333 1.0000 1.0000 1.0000
v 0.100000 -0.100000 -0.033333 1.0000 1.0000 1.0000
v -0.033333 -0.033333 -0.100000 1.0000 1.0000 1.0000
v 0.033333 -0.033333 -0.100000 1.0000 1.0000 1.0000
v -0.033333 0.033333 -0.100000 0.0000 1.0000 0.0706
v 0.033333 0.033333 -0.100000 0.0000 1.0000 0.0706
v 0.100000 -0.033333 -0.033333 1.0000 1.0000 1.0000
v 0.100000 -0.033333 0.033333 0.7176 0.0000 1.0000
v 0.100000 0.033333 -0.033333 1.0000 1.0000 1.0000
v 0.100000 0.033333 0.033333 1.0000 1.0000 1.0000
v -0.033333 -0.100000 -0.033333 1.0000 1.0000 1.0000
v -0.033333 -0.100000 0.033333 1.0000 1.0000 1.0000
v 0.033333 -0.100000 -0.033333 1.0000 1.0000 1.0000
v 0.033333 -0.100000 0.033333 0.0510 1.0000 1.0000
v -0.100000 -0.033333 0.033333 1.0000 0.0745 0.0627
v -0.100000 -0.033333 -0.033333 1.0000 0.0745 0.0627
v -0.100000 0.033333 0.033333 1.0000 0.0745 0.0627
v -0.100000 0.033333 -0.033333 1.0000 0.0745 0.0627
v 0.033333 -0.033333 0.100000 1.0000 0.9607 0.1843
v -0.033333 -0.033333 0.100000 1.0000 1.0000 1.0000
v 0.033333 0.033333 0.100000 1.0000 1.0000 1.0000
v -0.033333 0.033333 0.100000 1.0000 1.0000 1.0000
v 0.033333 0.100000 -0.033333 0.3372 1.0000 1.0000
v 0.033333 0.100000 0.033333 1.0000 1.0000 1.0000
v -0.033333 0.100000 -0.033333 0.0510 1.0000 1.0000
v -0.033333 0.100000 0.033333 1.0000 1.0000 1.0000
v 0.033333 0.177162 -0.033333 0.9921 1.0000 1.0000
v 0.033333 0.177162 0.033333 1.0000 1.0000 1.0000
v -0.033333 0.177162 -0.033333 1.0000 1.0000 1.0000
v -0.033333 0.177162 0.033333 1.0000 1.0000 1.0000
v 0.303873 -0.033333 -0.033333 1.0000 1.0000 1.0000
v 0.303873 -0.033333 0.033333 0.7176 0.0000 1.0000
v 0.303873 0.033333 -0.033333 1.0000 1.0000 1.0000
v 0.303873 0.033333 0.033333 0.7176 0.0118 1.0000
v -0.033333 -0.033333 -0.145583 1.0000 1.0000 1.0000
v 0.033333 -0.033333 -0.145583 1.0000 1.0000 1.0000
v -0.033333 0.033333 -0.145583 1.0000 1.0000 1.0000
v 0.033333 0.033333 -0.145583 0.0510 1.0000 1.0000
v 0.033333 0.228644 -0.033333 0.0157 0.6510 1.0000
v 0.033333 0.228644 0.033333 0.0157 0.6510 1.0000
v -0.033333 0.228644 -0.033333 0.0157 0.6510 1.0000
v -0.033333 0.228644 0.033333 0.0157 0.6510 1.0000
v 0.074344 0.177162 -0.033333 1.0000 1.0000 1.0000
v 0.074344 0.177162 0.033333 1.0000 1.0000 1.0000
v 0.074344 0.228644 -0.033333 0.0157 0.6510 1.0000
v 0.074344 0.228644 0.033333 0.0157 0.6510 1.0000
s 0
f 27 22 56
f 22 16 52
f 28 19 48
f 31 26 44
f 24 17 40
f 30 13 36
f 34 2 11
f 36 14 34
f 20 12 6
f 33 11 12
f 19 33 20
f 33 66 34
f 5 35 19
f 29 36 35
f 38 4 31
f 40 18 38
f 14 32 2
f 37 31 32
f 13 37 14
f 40 63 39
f 1 39 13
f 23 40 39
f 42 8 10
f 44 25 42
f 12 9 6
f 41 10 9
f 11 41 12
f 43 42 41
f 2 43 11
f 32 44 43
f 46 6 9
f 48 20 46
f 15 10 8
f 45 9 10
f 16 45 15
f 47 46 45
f 7 47 16
f 27 48 47
f 50 8 25
f 52 15 50
f 18 26 4
f 49 25 26
f 17 49 18
f 51 50 49
f 3 51 17
f 21 52 51
f 54 3 24
f 56 21 54
f 30 23 1
f 53 24 23
f 29 53 30
f 55 57 53
f 5 55 29
f 28 56 55
f 57 74 58
f 53 58 54
f 54 60 56
f 56 59 55
f 63 62 61
f 39 61 37
f 37 62 38
f 38 64 40
f 67 66 65
f 34 68 36
f 36 67 35
f 35 65 33
f 71 70 69
f 58 72 60
f 60 71 59
f 59 69 57
f 73 76 74
f 58 76 70
f 69 73 57
f 70 75 69
f 27 7 22
f 22 7 16
f 28 5 19
f 31 4 26
f 24 3 17
f 30 1 13
f 34 14 2
f 36 13 14
f 20 33 12
f 33 34 11
f 19 35 33
f 33 65 66
f 5 29 35
f 29 30 36
f 38 18 4
f 40 17 18
f 14 37 32
f 37 38 31
f 13 39 37
f 40 64 63
f 1 23 39
f 23 24 40
f 42 25 8
f 44 26 25
f 12 41 9
f 41 42 10
f 11 43 41
f 43 44 42
f 2 32 43
f 32 31 44
f 46 20 6
f 48 19 20
f 15 45 10
f 45 46 9
f 16 47 45
f 47 48 46
f 7 27 47
f 27 28 48
f 50 15 8
f 52 16 15
f 18 49 26
f 49 50 25
f 17 51 49
f 51 52 50
f 3 21 51
f 21 22 52
f 54 21 3
f 56 22 21
f 30 53 23
f 53 54 24
f 29 55 53
f 55 59 57
f 5 28 55
f 28 27 56
f 57 73 74
f 53 57 58
f 54 58 60
f 56 60 59
f 63 64 62
f 39 63 61
f 37 61 62
f 38 62 64
f 67 68 66
f 34 66 68
f 36 68 67
f 35 67 65
f 71 72 70
f 58 70 72
f 60 72 71
f 59 71 69
f 73 75 76
f 58 74 76
f 69 75 73
f 70 76 75
