# Object Export From Tinkercad Server 2015

mtllib obj.mtl

o obj_0
v 0 		-1 		19.0211
v 0 		-9.5065 		13.7638
v -8.0902 		-3.6287 		13.7638
v -5 		5.8819 		13.7638
v 5 		5.8819 		13.7638
v 8.0902 		-3.6287 		13.7638
v 0 		7.5065 		5.2573
v 8.0902 		1.6287 		5.2573
v 5 		-7.8819 		5.2573
v -5 		-7.8819 		5.2573
v -8.0902 		1.6287 		5.2573
v 0 		-1 		0
# 12 vertices

g group_0_15277357

usemtl color_15277357
s 0

f 1 	2 	6
f 1 	3 	2
f 1 	4 	3
f 1 	5 	4
f 1 	6 	5
f 12 	11 	7
f 12 	7 	8
f 12 	8 	9
f 12 	9 	10
f 12 	10 	11
f 2 	3 	10
f 3 	11 	10
f 3 	4 	11
f 4 	7 	11
f 4 	5 	7
f 5 	8 	7
f 5 	6 	8
f 6 	9 	8
f 6 	2 	9
f 2 	10 	9
# 20 faces

 #end of obj_0

